<svg id="visual" viewBox="0 0 960 540" width="960" height="540" xmlns="http://www.w3.org/2000/svg" xmlns:xlink="http://www.w3.org/1999/xlink" version="1.1"><rect x="0" y="0" width="960" height="540" fill="#faf4e8"></rect><path d="M0 357L137 373L274 364L411 355L549 387L686 381L823 373L960 358L960 541L823 541L686 541L549 541L411 541L274 541L137 541L0 541Z" fill="#efd4bd"></path><path d="M0 381L137 412L274 402L411 396L549 384L686 410L823 397L960 409L960 541L823 541L686 541L549 541L411 541L274 541L137 541L0 541Z" fill="#d2c0a1"></path><path d="M0 417L137 424L274 405L411 405L549 422L686 413L823 428L960 434L960 541L823 541L686 541L549 541L411 541L274 541L137 541L0 541Z" fill="#b1ae89"></path><path d="M0 430L137 438L274 452L411 431L549 446L686 433L823 434L960 440L960 541L823 541L686 541L549 541L411 541L274 541L137 541L0 541Z" fill="#8f9c76"></path><path d="M0 455L137 465L274 470L411 473L549 469L686 465L823 477L960 478L960 541L823 541L686 541L549 541L411 541L274 541L137 541L0 541Z" fill="#6b8a67"></path><path d="M0 493L137 495L274 482L411 492L549 486L686 483L823 479L960 478L960 541L823 541L686 541L549 541L411 541L274 541L137 541L0 541Z" fill="#45785d"></path><path d="M0 520L137 513L274 517L411 503L549 514L686 508L823 522L960 523L960 541L823 541L686 541L549 541L411 541L274 541L137 541L0 541Z" fill="#126656"></path></svg>